# xmcd
#
# Track frame offsets: 
#        150
#        17032
#        41692
#        60026
#        77555
#        100043
#        119766
#        136534
#
# Disc length: 2142 seconds
#
# Revision: 0
# Processed by: cddbd v1.5.2PL0 Copyright (c) Steve Scherf et al.
# Submitted via: ExactAudioCopy v1.3
#
DISCID=56085c08
DTITLE=洛天依-乐正绫-言和-星尘 - 平行四界VI
DYEAR=2017
DGENRE=Vocaloid
TTITLE0=夙春殇
TTITLE1=Nightlight
TTITLE2=星变
TTITLE3=玻璃水母
TTITLE4=自动人形的呼唤
TTITLE5=寻常孤单中毒
TTITLE6=流浪者的歌
TTITLE7=世末歌者
EXTD=
EXTT0=
EXTT1=
EXTT2=
EXTT3=
EXTT4=
EXTT5=
EXTT6=
EXTT7=
PLAYORDER=
